<mxfile host="app.diagrams.net" modified="2024-06-08T13:32:57.389Z" agent="Mozilla/5.0 (Windows NT 10.0; Win64; x64) AppleWebKit/537.36 (KHTML, like Gecko) Chrome/125.0.0.0 Safari/537.36" etag="Pu8i3_jmHN6gB3_nOJTw" version="24.5.2" type="github">
  <diagram name="第 1 页" id="3w3Ou4C8uPkpE-inUmN-">
    <mxGraphModel dx="1621" dy="759" grid="0" gridSize="10" guides="1" tooltips="1" connect="1" arrows="1" fold="1" page="0" pageScale="1" pageWidth="827" pageHeight="1169" math="0" shadow="0">
      <root>
        <mxCell id="0" />
        <mxCell id="1" parent="0" />
        <mxCell id="MDFGnwkx5b26U6rlg1PJ-10" value="" style="rounded=1;whiteSpace=wrap;html=1;fillColor=none;dashed=1;strokeWidth=2;arcSize=4;" vertex="1" parent="1">
          <mxGeometry x="340" y="130" width="520" height="480" as="geometry" />
        </mxCell>
        <mxCell id="yfV-7BdiZByZyDZHxFde-94" value="" style="rounded=1;whiteSpace=wrap;html=1;fillColor=none;dashed=1;strokeWidth=2;arcSize=4;" parent="1" vertex="1">
          <mxGeometry x="-200" y="130" width="520" height="480" as="geometry" />
        </mxCell>
        <mxCell id="yfV-7BdiZByZyDZHxFde-37" style="edgeStyle=orthogonalEdgeStyle;rounded=0;orthogonalLoop=1;jettySize=auto;html=1;exitX=0.5;exitY=1;exitDx=0;exitDy=0;fontStyle=1" parent="1" source="yfV-7BdiZByZyDZHxFde-3" target="yfV-7BdiZByZyDZHxFde-5" edge="1">
          <mxGeometry relative="1" as="geometry" />
        </mxCell>
        <mxCell id="yfV-7BdiZByZyDZHxFde-3" value="开始" style="rounded=1;whiteSpace=wrap;html=1;arcSize=50;fontStyle=1;fillColor=#E1D5E7;strokeColor=#E1D5E7;shadow=1;" parent="1" vertex="1">
          <mxGeometry x="-140" y="150" width="120" height="60" as="geometry" />
        </mxCell>
        <mxCell id="yfV-7BdiZByZyDZHxFde-4" value="结束" style="rounded=1;whiteSpace=wrap;html=1;arcSize=50;fontStyle=1;fillColor=#E1D5E7;strokeColor=#E1D5E7;shadow=1;" parent="1" vertex="1">
          <mxGeometry x="180" y="510" width="120" height="60" as="geometry" />
        </mxCell>
        <mxCell id="yfV-7BdiZByZyDZHxFde-36" style="edgeStyle=orthogonalEdgeStyle;rounded=0;orthogonalLoop=1;jettySize=auto;html=1;exitX=0.5;exitY=1;exitDx=0;exitDy=0;fontStyle=1" parent="1" source="yfV-7BdiZByZyDZHxFde-5" target="yfV-7BdiZByZyDZHxFde-6" edge="1">
          <mxGeometry relative="1" as="geometry" />
        </mxCell>
        <mxCell id="yfV-7BdiZByZyDZHxFde-5" value="初始化" style="rounded=1;whiteSpace=wrap;html=1;fontStyle=1;fillColor=#DAE8FC;strokeColor=#DAE8FC;shadow=1;" parent="1" vertex="1">
          <mxGeometry x="-140" y="240" width="120" height="60" as="geometry" />
        </mxCell>
        <mxCell id="yfV-7BdiZByZyDZHxFde-28" style="edgeStyle=orthogonalEdgeStyle;rounded=0;orthogonalLoop=1;jettySize=auto;html=1;exitX=0.5;exitY=1;exitDx=0;exitDy=0;entryX=0.5;entryY=0;entryDx=0;entryDy=0;fontStyle=1" parent="1" source="yfV-7BdiZByZyDZHxFde-6" target="yfV-7BdiZByZyDZHxFde-26" edge="1">
          <mxGeometry relative="1" as="geometry" />
        </mxCell>
        <mxCell id="yfV-7BdiZByZyDZHxFde-6" value="客户端输入请求" style="rounded=1;whiteSpace=wrap;html=1;fontStyle=1;fillColor=#DAE8FC;strokeColor=#DAE8FC;shadow=1;" parent="1" vertex="1">
          <mxGeometry x="-140" y="330" width="120" height="60" as="geometry" />
        </mxCell>
        <mxCell id="yfV-7BdiZByZyDZHxFde-32" style="edgeStyle=orthogonalEdgeStyle;rounded=0;orthogonalLoop=1;jettySize=auto;html=1;exitX=1;exitY=0.5;exitDx=0;exitDy=0;fontStyle=1" parent="1" source="yfV-7BdiZByZyDZHxFde-7" target="yfV-7BdiZByZyDZHxFde-8" edge="1">
          <mxGeometry relative="1" as="geometry" />
        </mxCell>
        <mxCell id="yfV-7BdiZByZyDZHxFde-7" value="创建客户端socket" style="rounded=1;whiteSpace=wrap;html=1;fontStyle=1;fillColor=#DAE8FC;strokeColor=#DAE8FC;shadow=1;" parent="1" vertex="1">
          <mxGeometry x="-140" y="510" width="120" height="60" as="geometry" />
        </mxCell>
        <mxCell id="yfV-7BdiZByZyDZHxFde-33" style="edgeStyle=orthogonalEdgeStyle;rounded=0;orthogonalLoop=1;jettySize=auto;html=1;exitX=0.5;exitY=0;exitDx=0;exitDy=0;entryX=0.5;entryY=1;entryDx=0;entryDy=0;fontStyle=1" parent="1" source="yfV-7BdiZByZyDZHxFde-8" target="yfV-7BdiZByZyDZHxFde-9" edge="1">
          <mxGeometry relative="1" as="geometry" />
        </mxCell>
        <mxCell id="yfV-7BdiZByZyDZHxFde-8" value="连接服务端" style="rounded=1;whiteSpace=wrap;html=1;fontStyle=1;fillColor=#DAE8FC;strokeColor=#DAE8FC;shadow=1;" parent="1" vertex="1">
          <mxGeometry x="20" y="510" width="120" height="60" as="geometry" />
        </mxCell>
        <mxCell id="yfV-7BdiZByZyDZHxFde-34" style="edgeStyle=orthogonalEdgeStyle;rounded=0;orthogonalLoop=1;jettySize=auto;html=1;exitX=0.5;exitY=0;exitDx=0;exitDy=0;fontStyle=1" parent="1" source="yfV-7BdiZByZyDZHxFde-9" target="yfV-7BdiZByZyDZHxFde-13" edge="1">
          <mxGeometry relative="1" as="geometry" />
        </mxCell>
        <mxCell id="yfV-7BdiZByZyDZHxFde-9" value="发送文件名" style="rounded=1;whiteSpace=wrap;html=1;fontStyle=1;fillColor=#DAE8FC;strokeColor=#DAE8FC;shadow=1;" parent="1" vertex="1">
          <mxGeometry x="20" y="420" width="120" height="60" as="geometry" />
        </mxCell>
        <mxCell id="yfV-7BdiZByZyDZHxFde-38" style="edgeStyle=orthogonalEdgeStyle;rounded=0;orthogonalLoop=1;jettySize=auto;html=1;exitX=1;exitY=0.5;exitDx=0;exitDy=0;entryX=0;entryY=0.5;entryDx=0;entryDy=0;fontStyle=1" parent="1" source="yfV-7BdiZByZyDZHxFde-10" target="yfV-7BdiZByZyDZHxFde-11" edge="1">
          <mxGeometry relative="1" as="geometry" />
        </mxCell>
        <mxCell id="yfV-7BdiZByZyDZHxFde-10" value="本地创建bak文件" style="rounded=1;whiteSpace=wrap;html=1;fontStyle=1;fillColor=#DAE8FC;strokeColor=#DAE8FC;shadow=1;" parent="1" vertex="1">
          <mxGeometry x="20" y="240" width="120" height="60" as="geometry" />
        </mxCell>
        <mxCell id="yfV-7BdiZByZyDZHxFde-55" style="edgeStyle=orthogonalEdgeStyle;rounded=0;orthogonalLoop=1;jettySize=auto;html=1;exitX=0.5;exitY=1;exitDx=0;exitDy=0;" parent="1" source="yfV-7BdiZByZyDZHxFde-11" target="yfV-7BdiZByZyDZHxFde-23" edge="1">
          <mxGeometry relative="1" as="geometry" />
        </mxCell>
        <mxCell id="yfV-7BdiZByZyDZHxFde-11" value="接收文件数据" style="rounded=1;whiteSpace=wrap;html=1;fontStyle=1;fillColor=#DAE8FC;strokeColor=#DAE8FC;shadow=1;" parent="1" vertex="1">
          <mxGeometry x="180" y="240" width="120" height="60" as="geometry" />
        </mxCell>
        <mxCell id="yfV-7BdiZByZyDZHxFde-35" style="edgeStyle=orthogonalEdgeStyle;rounded=0;orthogonalLoop=1;jettySize=auto;html=1;exitX=0;exitY=0.5;exitDx=0;exitDy=0;entryX=1;entryY=0.5;entryDx=0;entryDy=0;fontStyle=1" parent="1" source="yfV-7BdiZByZyDZHxFde-13" target="yfV-7BdiZByZyDZHxFde-6" edge="1">
          <mxGeometry relative="1" as="geometry" />
        </mxCell>
        <mxCell id="yfV-7BdiZByZyDZHxFde-44" value="否" style="edgeLabel;html=1;align=center;verticalAlign=middle;resizable=0;points=[];fontStyle=1" parent="yfV-7BdiZByZyDZHxFde-35" vertex="1" connectable="0">
          <mxGeometry x="-0.3828" y="2" relative="1" as="geometry">
            <mxPoint x="-7" y="-2" as="offset" />
          </mxGeometry>
        </mxCell>
        <mxCell id="yfV-7BdiZByZyDZHxFde-41" style="edgeStyle=orthogonalEdgeStyle;rounded=0;orthogonalLoop=1;jettySize=auto;html=1;exitX=0.5;exitY=0;exitDx=0;exitDy=0;entryX=0.5;entryY=1;entryDx=0;entryDy=0;fontStyle=1" parent="1" source="yfV-7BdiZByZyDZHxFde-13" target="yfV-7BdiZByZyDZHxFde-10" edge="1">
          <mxGeometry relative="1" as="geometry" />
        </mxCell>
        <mxCell id="yfV-7BdiZByZyDZHxFde-49" value="是" style="edgeLabel;html=1;align=center;verticalAlign=middle;resizable=0;points=[];fontStyle=1" parent="yfV-7BdiZByZyDZHxFde-41" vertex="1" connectable="0">
          <mxGeometry x="-0.1946" y="2" relative="1" as="geometry">
            <mxPoint x="2" as="offset" />
          </mxGeometry>
        </mxCell>
        <mxCell id="yfV-7BdiZByZyDZHxFde-13" value="文件是否存在" style="rhombus;whiteSpace=wrap;html=1;fontStyle=1;fillColor=#F8CECC;strokeColor=#F8CECC;shadow=1;" parent="1" vertex="1">
          <mxGeometry x="20" y="330" width="120" height="60" as="geometry" />
        </mxCell>
        <mxCell id="yfV-7BdiZByZyDZHxFde-53" style="edgeStyle=orthogonalEdgeStyle;rounded=0;orthogonalLoop=1;jettySize=auto;html=1;exitX=0.5;exitY=1;exitDx=0;exitDy=0;" parent="1" source="yfV-7BdiZByZyDZHxFde-23" target="yfV-7BdiZByZyDZHxFde-51" edge="1">
          <mxGeometry relative="1" as="geometry" />
        </mxCell>
        <mxCell id="yfV-7BdiZByZyDZHxFde-23" value="关闭socket" style="rounded=1;whiteSpace=wrap;html=1;fontStyle=1;fillColor=#DAE8FC;strokeColor=#DAE8FC;shadow=1;" parent="1" vertex="1">
          <mxGeometry x="180" y="330" width="120" height="60" as="geometry" />
        </mxCell>
        <mxCell id="yfV-7BdiZByZyDZHxFde-27" style="edgeStyle=orthogonalEdgeStyle;rounded=0;orthogonalLoop=1;jettySize=auto;html=1;exitX=0;exitY=0.5;exitDx=0;exitDy=0;entryX=0;entryY=0.5;entryDx=0;entryDy=0;fontStyle=1" parent="1" source="yfV-7BdiZByZyDZHxFde-26" target="yfV-7BdiZByZyDZHxFde-6" edge="1">
          <mxGeometry relative="1" as="geometry" />
        </mxCell>
        <mxCell id="yfV-7BdiZByZyDZHxFde-47" value="否" style="edgeLabel;html=1;align=center;verticalAlign=middle;resizable=0;points=[];fontStyle=1" parent="yfV-7BdiZByZyDZHxFde-27" vertex="1" connectable="0">
          <mxGeometry x="0.067" y="1" relative="1" as="geometry">
            <mxPoint y="4" as="offset" />
          </mxGeometry>
        </mxCell>
        <mxCell id="yfV-7BdiZByZyDZHxFde-31" style="edgeStyle=orthogonalEdgeStyle;rounded=0;orthogonalLoop=1;jettySize=auto;html=1;exitX=0.5;exitY=1;exitDx=0;exitDy=0;fontStyle=1" parent="1" source="yfV-7BdiZByZyDZHxFde-26" target="yfV-7BdiZByZyDZHxFde-7" edge="1">
          <mxGeometry relative="1" as="geometry" />
        </mxCell>
        <mxCell id="yfV-7BdiZByZyDZHxFde-48" value="是" style="edgeLabel;html=1;align=center;verticalAlign=middle;resizable=0;points=[];fontStyle=1" parent="yfV-7BdiZByZyDZHxFde-31" vertex="1" connectable="0">
          <mxGeometry x="0.1343" relative="1" as="geometry">
            <mxPoint as="offset" />
          </mxGeometry>
        </mxCell>
        <mxCell id="yfV-7BdiZByZyDZHxFde-26" value="输入是否合法" style="rhombus;whiteSpace=wrap;html=1;fontStyle=1;fillColor=#F8CECC;strokeColor=#F8CECC;shadow=1;" parent="1" vertex="1">
          <mxGeometry x="-140" y="420" width="120" height="60" as="geometry" />
        </mxCell>
        <mxCell id="yfV-7BdiZByZyDZHxFde-50" value="&lt;font style=&quot;font-size: 20px;&quot;&gt;客户端流程图&lt;/font&gt;" style="text;html=1;align=center;verticalAlign=middle;whiteSpace=wrap;rounded=0;fontStyle=1" parent="1" vertex="1">
          <mxGeometry x="80" y="165" width="160" height="30" as="geometry" />
        </mxCell>
        <mxCell id="yfV-7BdiZByZyDZHxFde-54" value="是" style="edgeStyle=orthogonalEdgeStyle;rounded=0;orthogonalLoop=1;jettySize=auto;html=1;exitX=0.5;exitY=1;exitDx=0;exitDy=0;fontStyle=1" parent="1" source="yfV-7BdiZByZyDZHxFde-51" target="yfV-7BdiZByZyDZHxFde-4" edge="1">
          <mxGeometry relative="1" as="geometry" />
        </mxCell>
        <mxCell id="yfV-7BdiZByZyDZHxFde-57" style="edgeStyle=orthogonalEdgeStyle;rounded=0;orthogonalLoop=1;jettySize=auto;html=1;exitX=0;exitY=0.5;exitDx=0;exitDy=0;" parent="1" source="yfV-7BdiZByZyDZHxFde-51" target="yfV-7BdiZByZyDZHxFde-6" edge="1">
          <mxGeometry relative="1" as="geometry">
            <mxPoint x="-180" y="360" as="targetPoint" />
            <mxPoint x="80" y="450" as="sourcePoint" />
            <Array as="points">
              <mxPoint x="160" y="450" />
              <mxPoint x="160" y="590" />
              <mxPoint x="-180" y="590" />
              <mxPoint x="-180" y="360" />
            </Array>
          </mxGeometry>
        </mxCell>
        <mxCell id="yfV-7BdiZByZyDZHxFde-59" value="否" style="edgeLabel;html=1;align=center;verticalAlign=middle;resizable=0;points=[];fontStyle=1" parent="yfV-7BdiZByZyDZHxFde-57" vertex="1" connectable="0">
          <mxGeometry x="-0.1439" y="2" relative="1" as="geometry">
            <mxPoint as="offset" />
          </mxGeometry>
        </mxCell>
        <mxCell id="yfV-7BdiZByZyDZHxFde-51" value="是否结束程序" style="rhombus;whiteSpace=wrap;html=1;fontStyle=1;fillColor=#F8CECC;strokeColor=#F8CECC;shadow=1;" parent="1" vertex="1">
          <mxGeometry x="180" y="420" width="120" height="60" as="geometry" />
        </mxCell>
        <mxCell id="yfV-7BdiZByZyDZHxFde-60" style="edgeStyle=orthogonalEdgeStyle;rounded=0;orthogonalLoop=1;jettySize=auto;html=1;exitX=0.5;exitY=1;exitDx=0;exitDy=0;fontStyle=1" parent="1" source="yfV-7BdiZByZyDZHxFde-61" target="yfV-7BdiZByZyDZHxFde-64" edge="1">
          <mxGeometry relative="1" as="geometry" />
        </mxCell>
        <mxCell id="yfV-7BdiZByZyDZHxFde-61" value="开始" style="rounded=1;whiteSpace=wrap;html=1;arcSize=50;fontStyle=1;fillColor=#E1D5E7;strokeColor=#E1D5E7;shadow=1;" parent="1" vertex="1">
          <mxGeometry x="400" y="150" width="120" height="60" as="geometry" />
        </mxCell>
        <mxCell id="yfV-7BdiZByZyDZHxFde-63" style="edgeStyle=orthogonalEdgeStyle;rounded=0;orthogonalLoop=1;jettySize=auto;html=1;exitX=0.5;exitY=1;exitDx=0;exitDy=0;fontStyle=1" parent="1" source="yfV-7BdiZByZyDZHxFde-64" target="yfV-7BdiZByZyDZHxFde-66" edge="1">
          <mxGeometry relative="1" as="geometry" />
        </mxCell>
        <mxCell id="yfV-7BdiZByZyDZHxFde-64" value="初始化" style="rounded=1;whiteSpace=wrap;html=1;fontStyle=1;fillColor=#DAE8FC;strokeColor=#DAE8FC;shadow=1;" parent="1" vertex="1">
          <mxGeometry x="400" y="240" width="120" height="60" as="geometry" />
        </mxCell>
        <mxCell id="yfV-7BdiZByZyDZHxFde-65" style="edgeStyle=orthogonalEdgeStyle;rounded=0;orthogonalLoop=1;jettySize=auto;html=1;exitX=0.5;exitY=1;exitDx=0;exitDy=0;entryX=0.5;entryY=0;entryDx=0;entryDy=0;fontStyle=1" parent="1" source="yfV-7BdiZByZyDZHxFde-66" target="yfV-7BdiZByZyDZHxFde-88" edge="1">
          <mxGeometry relative="1" as="geometry" />
        </mxCell>
        <mxCell id="yfV-7BdiZByZyDZHxFde-66" value="等待连接" style="rounded=1;whiteSpace=wrap;html=1;fontStyle=1;fillColor=#DAE8FC;strokeColor=#DAE8FC;shadow=1;" parent="1" vertex="1">
          <mxGeometry x="400" y="330" width="120" height="60" as="geometry" />
        </mxCell>
        <mxCell id="yfV-7BdiZByZyDZHxFde-67" style="edgeStyle=orthogonalEdgeStyle;rounded=0;orthogonalLoop=1;jettySize=auto;html=1;exitX=1;exitY=0.5;exitDx=0;exitDy=0;fontStyle=1" parent="1" source="yfV-7BdiZByZyDZHxFde-68" target="yfV-7BdiZByZyDZHxFde-70" edge="1">
          <mxGeometry relative="1" as="geometry" />
        </mxCell>
        <mxCell id="yfV-7BdiZByZyDZHxFde-68" value="接受客户端连接&lt;br&gt;获取客户端socket" style="rounded=1;whiteSpace=wrap;html=1;fontStyle=1;fillColor=#DAE8FC;strokeColor=#DAE8FC;shadow=1;" parent="1" vertex="1">
          <mxGeometry x="400" y="510" width="120" height="60" as="geometry" />
        </mxCell>
        <mxCell id="yfV-7BdiZByZyDZHxFde-69" style="edgeStyle=orthogonalEdgeStyle;rounded=0;orthogonalLoop=1;jettySize=auto;html=1;exitX=0.5;exitY=0;exitDx=0;exitDy=0;entryX=0.5;entryY=1;entryDx=0;entryDy=0;fontStyle=1" parent="1" source="yfV-7BdiZByZyDZHxFde-70" target="yfV-7BdiZByZyDZHxFde-72" edge="1">
          <mxGeometry relative="1" as="geometry" />
        </mxCell>
        <mxCell id="yfV-7BdiZByZyDZHxFde-70" value="接收文件名" style="rounded=1;whiteSpace=wrap;html=1;fontStyle=1;fillColor=#DAE8FC;strokeColor=#DAE8FC;shadow=1;" parent="1" vertex="1">
          <mxGeometry x="560" y="510" width="120" height="60" as="geometry" />
        </mxCell>
        <mxCell id="yfV-7BdiZByZyDZHxFde-71" style="edgeStyle=orthogonalEdgeStyle;rounded=0;orthogonalLoop=1;jettySize=auto;html=1;exitX=0.5;exitY=0;exitDx=0;exitDy=0;fontStyle=1" parent="1" source="yfV-7BdiZByZyDZHxFde-72" target="yfV-7BdiZByZyDZHxFde-81" edge="1">
          <mxGeometry relative="1" as="geometry" />
        </mxCell>
        <mxCell id="yfV-7BdiZByZyDZHxFde-72" value="尝试打开文件" style="rounded=1;whiteSpace=wrap;html=1;fontStyle=1;fillColor=#DAE8FC;strokeColor=#DAE8FC;shadow=1;" parent="1" vertex="1">
          <mxGeometry x="560" y="420" width="120" height="60" as="geometry" />
        </mxCell>
        <mxCell id="yfV-7BdiZByZyDZHxFde-77" style="edgeStyle=orthogonalEdgeStyle;rounded=0;orthogonalLoop=1;jettySize=auto;html=1;exitX=0;exitY=0.5;exitDx=0;exitDy=0;entryX=1;entryY=0.5;entryDx=0;entryDy=0;fontStyle=1" parent="1" source="yfV-7BdiZByZyDZHxFde-81" target="yfV-7BdiZByZyDZHxFde-66" edge="1">
          <mxGeometry relative="1" as="geometry" />
        </mxCell>
        <mxCell id="yfV-7BdiZByZyDZHxFde-78" value="否" style="edgeLabel;html=1;align=center;verticalAlign=middle;resizable=0;points=[];fontStyle=1" parent="yfV-7BdiZByZyDZHxFde-77" vertex="1" connectable="0">
          <mxGeometry x="-0.3828" y="2" relative="1" as="geometry">
            <mxPoint x="-7" y="-2" as="offset" />
          </mxGeometry>
        </mxCell>
        <mxCell id="yfV-7BdiZByZyDZHxFde-79" style="edgeStyle=orthogonalEdgeStyle;rounded=0;orthogonalLoop=1;jettySize=auto;html=1;exitX=0.5;exitY=0;exitDx=0;exitDy=0;entryX=0.5;entryY=1;entryDx=0;entryDy=0;fontStyle=1" parent="1" source="yfV-7BdiZByZyDZHxFde-81" edge="1">
          <mxGeometry relative="1" as="geometry">
            <mxPoint x="620" y="300" as="targetPoint" />
          </mxGeometry>
        </mxCell>
        <mxCell id="yfV-7BdiZByZyDZHxFde-80" value="是" style="edgeLabel;html=1;align=center;verticalAlign=middle;resizable=0;points=[];fontStyle=1" parent="yfV-7BdiZByZyDZHxFde-79" vertex="1" connectable="0">
          <mxGeometry x="-0.1946" y="2" relative="1" as="geometry">
            <mxPoint x="2" as="offset" />
          </mxGeometry>
        </mxCell>
        <mxCell id="yfV-7BdiZByZyDZHxFde-81" value="文件是否存在" style="rhombus;whiteSpace=wrap;html=1;fontStyle=1;fillColor=#F8CECC;strokeColor=#F8CECC;shadow=1;" parent="1" vertex="1">
          <mxGeometry x="560" y="330" width="120" height="60" as="geometry" />
        </mxCell>
        <mxCell id="yfV-7BdiZByZyDZHxFde-84" style="edgeStyle=orthogonalEdgeStyle;rounded=0;orthogonalLoop=1;jettySize=auto;html=1;exitX=0;exitY=0.5;exitDx=0;exitDy=0;entryX=0;entryY=0.5;entryDx=0;entryDy=0;fontStyle=1" parent="1" source="yfV-7BdiZByZyDZHxFde-88" target="yfV-7BdiZByZyDZHxFde-66" edge="1">
          <mxGeometry relative="1" as="geometry" />
        </mxCell>
        <mxCell id="yfV-7BdiZByZyDZHxFde-85" value="否" style="edgeLabel;html=1;align=center;verticalAlign=middle;resizable=0;points=[];fontStyle=1" parent="yfV-7BdiZByZyDZHxFde-84" vertex="1" connectable="0">
          <mxGeometry x="0.067" y="1" relative="1" as="geometry">
            <mxPoint y="4" as="offset" />
          </mxGeometry>
        </mxCell>
        <mxCell id="yfV-7BdiZByZyDZHxFde-86" style="edgeStyle=orthogonalEdgeStyle;rounded=0;orthogonalLoop=1;jettySize=auto;html=1;exitX=0.5;exitY=1;exitDx=0;exitDy=0;fontStyle=1" parent="1" source="yfV-7BdiZByZyDZHxFde-88" target="yfV-7BdiZByZyDZHxFde-68" edge="1">
          <mxGeometry relative="1" as="geometry" />
        </mxCell>
        <mxCell id="yfV-7BdiZByZyDZHxFde-87" value="是" style="edgeLabel;html=1;align=center;verticalAlign=middle;resizable=0;points=[];fontStyle=1" parent="yfV-7BdiZByZyDZHxFde-86" vertex="1" connectable="0">
          <mxGeometry x="0.1343" relative="1" as="geometry">
            <mxPoint as="offset" />
          </mxGeometry>
        </mxCell>
        <mxCell id="yfV-7BdiZByZyDZHxFde-88" value="是否有用户连接" style="rhombus;whiteSpace=wrap;html=1;fontStyle=1;fillColor=#F8CECC;strokeColor=#F8CECC;shadow=1;" parent="1" vertex="1">
          <mxGeometry x="400" y="420" width="120" height="60" as="geometry" />
        </mxCell>
        <mxCell id="yfV-7BdiZByZyDZHxFde-89" value="&lt;font style=&quot;font-size: 20px;&quot;&gt;服务端流程图&lt;/font&gt;" style="text;html=1;align=center;verticalAlign=middle;whiteSpace=wrap;rounded=0;fontStyle=1" parent="1" vertex="1">
          <mxGeometry x="620" y="165" width="160" height="30" as="geometry" />
        </mxCell>
        <mxCell id="MDFGnwkx5b26U6rlg1PJ-1" value="结束" style="rounded=1;whiteSpace=wrap;html=1;arcSize=50;fontStyle=1;fillColor=#E1D5E7;strokeColor=#E1D5E7;shadow=1;" vertex="1" parent="1">
          <mxGeometry x="720" y="330" width="120" height="60" as="geometry" />
        </mxCell>
        <mxCell id="MDFGnwkx5b26U6rlg1PJ-2" value="是否结束程序" style="rhombus;whiteSpace=wrap;html=1;fontStyle=1;fillColor=#F8CECC;strokeColor=#F8CECC;shadow=1;" vertex="1" parent="1">
          <mxGeometry x="720" y="240" width="120" height="60" as="geometry" />
        </mxCell>
        <mxCell id="MDFGnwkx5b26U6rlg1PJ-5" style="edgeStyle=orthogonalEdgeStyle;rounded=0;orthogonalLoop=1;jettySize=auto;html=1;exitX=1;exitY=0.5;exitDx=0;exitDy=0;" edge="1" parent="1" source="MDFGnwkx5b26U6rlg1PJ-3" target="MDFGnwkx5b26U6rlg1PJ-2">
          <mxGeometry relative="1" as="geometry" />
        </mxCell>
        <mxCell id="MDFGnwkx5b26U6rlg1PJ-3" value="发送文件内容" style="rounded=1;whiteSpace=wrap;html=1;fontStyle=1;fillColor=#DAE8FC;strokeColor=#DAE8FC;shadow=1;" vertex="1" parent="1">
          <mxGeometry x="560" y="240" width="120" height="60" as="geometry" />
        </mxCell>
        <mxCell id="MDFGnwkx5b26U6rlg1PJ-8" style="edgeStyle=orthogonalEdgeStyle;rounded=0;orthogonalLoop=1;jettySize=auto;html=1;exitX=1;exitY=0.5;exitDx=0;exitDy=0;" edge="1" parent="1" source="MDFGnwkx5b26U6rlg1PJ-2">
          <mxGeometry relative="1" as="geometry">
            <mxPoint x="400" y="360" as="targetPoint" />
            <mxPoint x="720" y="450" as="sourcePoint" />
            <Array as="points">
              <mxPoint x="850" y="270" />
              <mxPoint x="850" y="590" />
              <mxPoint x="360" y="590" />
              <mxPoint x="360" y="360" />
            </Array>
          </mxGeometry>
        </mxCell>
        <mxCell id="MDFGnwkx5b26U6rlg1PJ-9" value="否" style="edgeLabel;html=1;align=center;verticalAlign=middle;resizable=0;points=[];fontStyle=1" vertex="1" connectable="0" parent="MDFGnwkx5b26U6rlg1PJ-8">
          <mxGeometry x="-0.1439" y="2" relative="1" as="geometry">
            <mxPoint x="-113" as="offset" />
          </mxGeometry>
        </mxCell>
        <mxCell id="MDFGnwkx5b26U6rlg1PJ-11" value="是" style="edgeStyle=orthogonalEdgeStyle;rounded=0;orthogonalLoop=1;jettySize=auto;html=1;exitX=0.5;exitY=1;exitDx=0;exitDy=0;fontStyle=1" edge="1" parent="1">
          <mxGeometry relative="1" as="geometry">
            <mxPoint x="780" y="300" as="sourcePoint" />
            <mxPoint x="780" y="330" as="targetPoint" />
          </mxGeometry>
        </mxCell>
      </root>
    </mxGraphModel>
  </diagram>
</mxfile>
